<?xml version="1.0" encoding="UTF-8"?>
<svg width="18px" height="16px" viewBox="0 0 18 16" version="1.1" xmlns="http://www.w3.org/2000/svg" xmlns:xlink="http://www.w3.org/1999/xlink">
    <!-- Generator: Sketch 41.2 (35397) - http://www.bohemiancoding.com/sketch -->
    <title>Icons/Home</title>
    <desc>Created with Sketch.</desc>
    <defs></defs>
    <g id="Symbols" stroke="none" stroke-width="1" fill="none" fill-rule="evenodd">
        <path d="M14.0002607,14 L4.00026065,14 L4.00026065,6.156 L9.00026065,2.267 L14.0002607,6.156 L14.0002607,14 Z M17.6142607,6.433 L9.61426065,0.21 C9.25326065,-0.07 8.74726065,-0.07 8.38626065,0.21 L0.386260654,6.433 C-0.049739346,6.772 -0.128739346,7.4 0.211260654,7.836 C0.550260654,8.272 1.17826065,8.352 1.61426065,8.012 L2.00026065,7.712 L2.00026065,15 C2.00026065,15.552 2.44726065,16 3.00026065,16 L15.0002607,16 C15.5532607,16 16.0002607,15.552 16.0002607,15 L16.0002607,7.712 L16.3862607,8.012 C16.5682607,8.153 16.7852607,8.222 16.9992607,8.222 C17.2972607,8.222 17.5922607,8.089 17.7892607,7.836 C18.1292607,7.4 18.0502607,6.772 17.6142607,6.433 L17.6142607,6.433 Z" id="Icons/Home" fill="#FFFFFF"></path>
    </g>
</svg>