<svg width="380" height="192" viewBox="0 0 380 192" xmlns="http://www.w3.org/2000/svg"><title>ZZ</title><g fill="#FFF" fill-rule="evenodd"><path d="M163.836 21.504l-.258-.015-43.148 84.628c.482-.282.8-.673 1.105-1.072 13.88-18.17 27.76-36.342 41.648-54.505.454-.592.726-1.174.722-1.95-.04-7.807-.05-15.615-.07-23.423-.002-1.22 0-2.442 0-3.663zM10.63 18.212l-.297.068v1.146c.018 5.218.035 10.436.056 15.654.04 9.918.078 19.835.128 29.752.002.452.104.903.164 1.393.503 0 .86.003 1.216 0 5.258-.037 10.516-.094 15.774-.11 7.33-.02 14.66-.01 21.99-.02.45 0 .898-.044 1.608-.082-13.677-16.086-27.16-31.943-40.64-47.8zM8.164 185.054c-.256-.945.494-1.154 1.034-1.497 27.23-17.294 54.46-34.583 81.69-51.875.317-.2.613-.434 1.14-.81l-85.1 13.352c.015 13.654-.092 27.215.16 40.83h1.076zM167.6 125.61c-.68-.036-1.263-.093-1.845-.093-16.38-.005-32.76.035-49.138-.048-2.336-.013-4.334.4-6.215 1.816-1.646 1.237-3.462 2.248-5.44 3.51.458.35.825.59 1.143.882 6.335 5.824 12.667 11.653 18.996 17.485 8.996 8.288 17.99 16.578 26.983 24.87 3.632 3.35 7.258 6.705 10.892 10.05.288.266.612.66.94.682 1.212.082 2.432.033 3.685.033v-59.19zM10.955 136.703c29.75-4.662 59.198-9.278 88.646-13.895.236-.038.466-.11.697-.17.036-.007.078-.03.095-.057.02-.03.012-.078.016-.117-1.84-2.455-41.512-47.678-42.33-48.224-15.652 20.748-31.307 41.5-47.123 62.462zm8.786 48.185l.08.295c.553 0 1.106.003 1.658 0 5.1-.04 10.198-.104 15.297-.115 22.867-.05 45.735-.08 68.604-.126 15.735-.03 31.472-.078 47.208-.117h1.177l-54.617-50.34L19.74 184.89zm86.574-66.09l56.91-111.596-.172-.116c-33.314 20.7-66.63 41.4-100.037 62.16l43.3 49.552zM150.237 7.047c-.024-.083-.048-.166-.07-.25h-1.27c-12.55.04-25.102.1-37.655.116-15.74.02-31.482-.01-47.223.01-12.275.015-24.55.067-36.822.117-5.22.02-10.44.075-15.658.12-.335.004-.67.07-1.266.132L58.52 64.04c30.615-19.025 61.166-38.01 91.717-56.993zM120.98 118.832c15.185.002 30.37 0 45.556.006.754 0 1.53-.046 2.26.105 3.235.67 5.46 3.348 5.572 6.723.078 2.35.07 4.702.07 7.052.006 17.295.002 34.59.005 51.886 0 2.682-1.088 4.778-3.35 6.223-1.203.77-2.55 1.046-3.985 1.045-10.443-.01-20.886.01-31.328.01-42.25.008-84.498.014-126.746.02-.678 0-1.357-.05-2.032-.013-3.328.18-7.006-2.737-7.002-6.96.01-8.45-.008-16.898.01-25.346.014-5.74.097-11.477.09-17.215 0-1.802.554-3.326 1.632-4.75 6.758-8.924 13.488-17.87 20.232-26.807 9.242-12.244 18.488-24.483 27.73-36.726.214-.282.407-.58.64-.91-.396-.39-.853-.26-1.257-.26-3.15-.01-6.297-.008-9.446 0-9.046.02-18.093.05-27.14.06-.954.003-1.918-.01-2.858-.146-3.175-.465-5.564-3.01-5.838-6.198-.09-1.07-.083-2.15-.087-3.224-.06-13.828-.114-27.656-.17-41.484-.02-4.662-.06-9.324-.057-13.986 0-.91.043-1.848.27-2.72C4.536 2.21 7.023.282 10.31.027 10.75-.006 11.19 0 11.627 0c50.38 0 100.76 0 151.14.002.596 0 1.2-.01 1.788.072 3.705.52 6.175 3.315 6.29 7.12.035 1.116-.013 2.232-.016 3.348-.03 12.394-.09 24.787-.07 37.18.006 2.753-.767 5.092-2.456 7.29-9.035 11.748-17.994 23.555-26.987 35.336-6.987 9.153-13.988 18.295-20.98 27.445-.207.272-.38.57-.65.983.53.024.912.056 1.294.056zM321.474 135.033c.446.457.768.8 1.103 1.13 6.116 5.994 12.238 11.982 18.35 17.982 10.202 10.02 20.397 20.047 30.596 30.07.2.196.382.416.61.572.203.14.457.206.824.36v-50.096c-1.587-.408-49.946-.454-51.483-.017m-1.878-7.317c.596.04.946.078 1.297.082 3.904.04 7.81.11 11.713.104 12.035-.018 24.07-.065 36.103-.106.366-.002.734-.063 1.27-.112-.357-.507-.57-.836-.808-1.147-5.62-7.388-11.244-14.772-16.86-22.162-2.845-3.742-5.667-7.502-8.514-11.242-.78-1.024-1.217-2.13-1.1-3.435.096-1.088.67-1.934 1.304-2.766 9.473-12.415 18.938-24.835 28.424-37.24.465-.608.653-1.207.65-1.96-.02-7.97-.013-15.938-.014-23.907V22.68l-.22-.05c-17.712 34.956-35.424 69.91-53.246 105.086m-42.6-70.17l81.41-50.022c.235-.145.464-.302.693-.46.026-.017.044-.066.045-.1 0-.04-.023-.076-.074-.22-37.72.224-75.478.09-113.492.287 10.54 16.95 20.94 33.672 31.417 50.517m-46.377 127.32c.037.085.074.17.11.257.197.012.393.036.59.035 43.592-.02 87.185-.04 130.78-.062.037 0 .077-.014.114-.028.035-.013.075-.027.1-.053.025-.028.035-.07.108-.232L312.8 136.09l-82.182 48.777m85.207-64.803c19.056-37.58 37.996-74.93 56.932-112.282.107-.21.18-.44.26-.66.012-.034-.004-.082-.02-.117-.014-.035-.044-.062-.106-.142-.11 0-.296-.058-.404.008-30.608 18.79-61.21 37.59-91.905 56.445l35.245 56.75m-100.768 6.743v1.59c0 5.42.012 10.84.003 16.258-.022 12.87-.054 25.74-.077 38.61 0 .584.058 1.166.088 1.734 1.02.322 1.806.152 2.615-.33 10.74-6.404 21.492-12.792 32.247-19.174 18.255-10.835 36.514-21.662 54.77-32.493 2.022-1.2 4.032-2.417 6.07-3.588.816-.47 1.07-1.287 1.3-2.057.102-.345-.248-.876-.488-1.264-5.776-9.305-11.57-18.6-17.35-27.902-15.644-25.167-31.283-50.336-46.923-75.505-3.068-4.94-6.134-9.88-9.19-14.827-.308-.5-.597-.847-1.285-.84-5.737.07-11.475.097-17.212.146-.302.003-.604.097-.923.15v39.09c.67.038 1.214.094 1.758.094 12.155.006 24.31.004 36.466.008.557 0 1.14-.05 1.665.092.712.193 1.464.435 2.05.86 1.14.824 1.576 2.05 1.57 3.448-.02 3.826-.07 7.65-.018 11.476.027 2.047-.56 3.777-1.83 5.4C254.72 75 249.14 82.263 243.54 89.51c-.822 1.062-1.632 2.134-2.462 3.22.267.367.47.658.685.938 6.655 8.604 13.308 17.208 19.97 25.804.336.433.52.872.492 1.422-.03.596.014 1.197-.028 1.792-.157 2.228-1.84 3.832-4.07 3.9-.277.008-.557.002-.836.002-13.55.04-27.098.08-40.647.124-.467.002-.935.055-1.583.096m38.285-7.018c-.45-.61-.723-.988-1.008-1.358-5.602-7.25-11.21-14.5-16.807-21.753-1.938-2.513-1.988-5.14-.045-7.682 5.686-7.437 11.41-14.846 17.12-22.266.777-1.01 1.577-2.003 2.328-3.033.22-.303.43-.7.435-1.058.036-2.948.022-5.896.02-8.845 0-.075-.04-.15-.105-.377-.48-.036-1.016-.11-1.552-.11-11.04-.008-22.08-.005-33.118-.01-.716 0-1.435-.025-2.15-.082-3.79-.305-6.528-3.227-6.57-7.053-.04-3.706-.03-7.41-.043-11.117-.03-9.005-.065-18.01-.074-27.015 0-.948.038-1.93.272-2.84.76-2.96 3.293-4.947 6.443-5.168.437-.03.877-.024 1.315-.024 50.654 0 101.307 0 151.96.007.794 0 1.6.044 2.376.188 3.34.617 5.714 3.427 5.72 6.83.016 13.905.004 27.812.007 41.72 0 1.705-.615 3.16-1.644 4.505-4.916 6.422-9.802 12.867-14.707 19.297-4.278 5.606-8.568 11.202-12.85 16.805-.19.248-.35.518-.557.83.245.343.463.668.7.98 9.108 11.992 18.21 23.99 27.338 35.966 1.166 1.53 1.79 3.16 1.626 5.093-.057.673.03 1.355.03 2.03.006 16.26.013 32.516.01 48.774 0 .914-.004 1.837-.116 2.742-.442 3.568-3.37 6.1-6.955 6.103-27.778.012-55.556.027-83.334.048-24.31.018-48.62.047-72.93.053-1.028 0-2.087-.056-3.077-.304-2.932-.734-4.912-3.163-5.155-6.165-.048-.594-.07-1.192-.07-1.79-.005-9.8-.02-19.604 0-29.406.02-9.204.075-18.408.12-27.612.017-3.75 2.743-6.673 6.492-6.96.675-.05 1.354-.06 2.03-.06 11.597.037 23.194.08 34.79.118.475.002.95 0 1.732 0"/></g></svg>