<?xml version="1.0" encoding="UTF-8"?>
<svg width="16px" height="14px" viewBox="0 0 16 14" version="1.1" xmlns="http://www.w3.org/2000/svg" xmlns:xlink="http://www.w3.org/1999/xlink">
    <!-- Generator: Sketch 41.2 (35397) - http://www.bohemiancoding.com/sketch -->
    <title>Combined Shape</title>
    <desc>Created with Sketch.</desc>
    <defs></defs>
    <g id="Main" stroke="none" stroke-width="1" fill="none" fill-rule="evenodd">
        <g id="6-Sport-Mobile" transform="translate(-10.000000, -31.000000)" fill="#FFFFFF">
            <g id="Nav-Bar">
                <path d="M10,32 C10,31.4477153 10.4446309,31 11.0008717,31 L24.9991283,31 C25.5518945,31 26,31.4438648 26,32 C26,32.5522847 25.5553691,33 24.9991283,33 L11.0008717,33 C10.4481055,33 10,32.5561352 10,32 Z M10,38 C10,37.4477153 10.4446309,37 11.0008717,37 L24.9991283,37 C25.5518945,37 26,37.4438648 26,38 C26,38.5522847 25.5553691,39 24.9991283,39 L11.0008717,39 C10.4481055,39 10,38.5561352 10,38 Z M10,44 C10,43.4477153 10.4446309,43 11.0008717,43 L24.9991283,43 C25.5518945,43 26,43.4438648 26,44 C26,44.5522847 25.5553691,45 24.9991283,45 L11.0008717,45 C10.4481055,45 10,44.5561352 10,44 Z" id="Combined-Shape"></path>
            </g>
        </g>
    </g>
</svg>